<?xml version="1.0" encoding="UTF-8" standalone="no"?>
<!DOCTYPE svg PUBLIC "-//W3C//DTD SVG 1.1//EN" "http://www.w3.org/Graphics/SVG/1.1/DTD/svg11.dtd">
<svg width="100%" height="100%" viewBox="0 0 604 641" version="1.1" xmlns="http://www.w3.org/2000/svg" xmlns:xlink="http://www.w3.org/1999/xlink" xml:space="preserve" style="fill-rule:evenodd;clip-rule:evenodd;stroke-linecap:round;stroke-linejoin:round;stroke-miterlimit:1.41421;">
    <g transform="matrix(2,0,0,2,-761,-670)">
        <circle cx="475" cy="337" r="2" style="fill:white;"/>
    </g>
    <g transform="matrix(2,0,0,2,-508.75,-653.75)">
        <circle cx="475" cy="337" r="2" style="fill:white;"/>
    </g>
    <g transform="matrix(2,0,0,2,-407,-588.25)">
        <circle cx="475" cy="337" r="2" style="fill:white;"/>
    </g>
    <g transform="matrix(2,0,0,2,-362,-493.25)">
        <circle cx="475" cy="337" r="2" style="fill:white;"/>
    </g>
    <g transform="matrix(2,0,0,2,-350,-362.25)">
        <circle cx="475" cy="337" r="2" style="fill:white;"/>
    </g>
    <g transform="matrix(2,0,0,2,-395,-161.25)">
        <circle cx="475" cy="337" r="2" style="fill:white;"/>
    </g>
    <g transform="matrix(2,0,0,2,-632,-62.25)">
        <circle cx="475" cy="337" r="2" style="fill:white;"/>
    </g>
    <g transform="matrix(2,0,0,2,-422,-37.25)">
        <circle cx="475" cy="337" r="2" style="fill:white;"/>
    </g>
    <g transform="matrix(2,0,0,2,-869,-131.25)">
        <circle cx="475" cy="337" r="2" style="fill:white;"/>
    </g>
    <g transform="matrix(1,0,0,1,-598,-410.25)">
        <path d="M647,460L785,414L1039,431L1140,496L1186,591L900.5,597L625,557L647,460Z" style="fill:white;fill-opacity:0.196078;stroke-width:2.67px;stroke:white;"/>
    </g>
    <g transform="matrix(1,0,0,1,-598,-233.25)">
        <path d="M602,476.307L625,380L900.5,420L1186,414L1199,545.008L900.5,556L614,516L602,476.307Z" style="fill:white;fill-opacity:0.196078;stroke-width:2.67px;stroke:white;"/>
    </g>
    <g transform="matrix(-1,0,0,-0.857868,1203,806.166)">
        <path d="M648,342.03L884,226.627L1122,306.71L1187,610.136L900.5,563.509L602,576.323L648,342.03Z" style="fill:white;fill-opacity:0.196078;stroke-width:2.86px;stroke:white;"/>
    </g>
    <g transform="matrix(-1,0,0,-0.857868,1203,806.166)">
        <path d="M648,342.03L884,226.627L675,198.651L648,342.03Z" style="fill:white;stroke-width:2.86px;stroke:white;"/>
    </g>
    <g transform="matrix(1,0,0,1,-598,-410.25)">
        <path d="M625,557L791,414L900.5,597L1039,431L1186,591" style="fill:none;stroke-width:2.67px;stroke:white;stroke-opacity:0.301961;"/>
    </g>
    <g transform="matrix(1,0,0,1,-598,-410.25)">
        <path d="M1199,722.008L900.5,597" style="fill:none;stroke-width:2.67px;stroke:white;stroke-opacity:0.301961;"/>
    </g>
    <g transform="matrix(1,0,0,1,-598,-410.25)">
        <path d="M900.5,733L900.5,597L602,653.307L900.5,733Z" style="fill:none;stroke-width:2.67px;stroke:white;stroke-opacity:0.301961;"/>
    </g>
    <g transform="matrix(1,0,0,1,-598,-410.25)">
        <path d="M679,953.299L900.5,733L917,1022L1199,722.008" style="fill:none;stroke-width:2.67px;stroke:white;stroke-opacity:0.301961;"/>
    </g>
    <g transform="matrix(0.937075,-0.349127,0.349127,0.937075,-430.432,341.081)">
        <text x="710px" y="555.4px" style="font-family:'STHeitiTC-Medium', 'Heiti TC';font-size:40px;fill:black;">send</text>
    </g>
    <g transform="matrix(2,0,0,2,-934,-391.25)">
        <circle cx="475" cy="337" r="2" style="fill:white;"/>
    </g>
    <g transform="matrix(2,0,0,2,-946,-431.25)">
        <circle cx="475" cy="337" r="2" style="fill:white;"/>
    </g>
    <g transform="matrix(2,0,0,2,-923,-527.25)">
        <circle cx="475" cy="337" r="2" style="fill:white;"/>
    </g>
    <g transform="matrix(2,0,0,2,-900,-623.25)">
        <circle cx="475" cy="337" r="2" style="fill:white;"/>
    </g>
</svg>
